{"accessors":[{"bufferView":0,"componentType":5125,"count":24192,"max":[4388],"min":[0],"type":"SCALAR"},{"bufferView":1,"componentType":5126,"count":4389,"max":[0.9917562007904053,0.9914981722831726,0.992129385471344],"min":[-0.9911864399909973,-0.9916499853134155,-0.9908130764961243],"type":"VEC3"},{"bufferView":2,"componentType":5126,"count":4389,"max":[0.999969482421875,1.0,0.999969482421875],"min":[-0.999969482421875,-1.0,-0.999969482421875],"type":"VEC3"},{"bufferView":3,"componentType":5126,"count":4389,"max":[0.9999991059303284,1.0,0.3413704037666321,1.0],"min":[-0.9999988675117493,-0.34191572666168213,-0.3413456976413727,1.0],"type":"VEC4"},{"bufferView":4,"componentType":5126,"count":4389,"max":[0.7687550187110901,0.9435070008039474],"min":[0.18124599754810333,0.05624502897262573],"type":"VEC2"},{"bufferView":5,"componentType":5125,"count":81792,"max":[14227],"min":[0],"type":"SCALAR"},{"bufferView":6,"componentType":5126,"count":14228,"max":[1.0002846717834473,0.9999242424964905,1.0006582736968994],"min":[-0.9997153878211975,-1.0000759363174438,-0.9993417859077454],"type":"VEC3"},{"bufferView":7,"componentType":5126,"count":14228,"max":[1.0,1.0,1.0],"min":[-1.0,-1.0,-1.0],"type":"VEC3"},{"bufferView":8,"componentType":5126,"count":14228,"max":[0.9999995827674866,1.0,0.7199375629425049,1.0],"min":[-0.999999463558197,-0.7217497825622559,-0.7199321389198303,1.0],"type":"VEC4"},{"bufferView":9,"componentType":5126,"count":14228,"max":[0.875,1.0],"min":[0.125,0.0],"type":"VEC2"}],"asset":{"generator":"Khronos Blender glTF 2.0 exporter","version":"2.0"},"bufferViews":[{"buffer":0,"byteLength":96768,"byteOffset":0,"target":34963},{"buffer":0,"byteLength":52668,"byteOffset":96768,"target":34962},{"buffer":0,"byteLength":52668,"byteOffset":149436,"target":34962},{"buffer":0,"byteLength":70224,"byteOffset":202104,"target":34962},{"buffer":0,"byteLength":35112,"byteOffset":272328,"target":34962},{"buffer":0,"byteLength":327168,"byteOffset":307440,"target":34963},{"buffer":0,"byteLength":170736,"byteOffset":634608,"target":34962},{"buffer":0,"byteLength":170736,"byteOffset":805344,"target":34962},{"buffer":0,"byteLength":227648,"byteOffset":976080,"target":34962},{"buffer":0,"byteLength":113824,"byteOffset":1203728,"target":34962}],"buffers":[{"byteLength":1317552,"uri":"data:application/octet-stream;base64,"}],"materials":[{"alphaMode":"BLEND","name":"Hole","pbrMetallicRoughness":{"baseColorFactor":[0.0,0.0,0.0,1.0],"metallicFactor":0.0}},{"emissiveFactor":[0.5000001192092896,0.0,0.0],"extras":{"THREE_blending_type":4,"THREE_depth_test":1,"THREE_depth_write":1,"THREE_double_sided":0},"name":"Red_dice","pbrMetallicRoughness":{"baseColorFactor":[0.5235602259635925,0.0,0.0,1.0],"metallicFactor":0.0}}],"meshes":[{"name":"Dice_Cube","primitives":[{"attributes":{"NORMAL":2,"POSITION":1,"TANGENT":3,"TEXCOORD_0":4},"indices":0,"material":0},{"attributes":{"NORMAL":7,"POSITION":6,"TANGENT":8,"TEXCOORD_0":9},"indices":5,"material":1}]},{"name":"Dice_Cube_Dice_Cube","primitives":[{"attributes":{"NORMAL":2,"POSITION":1,"TANGENT":3,"TEXCOORD_0":4},"indices":0,"material":0},{"attributes":{"NORMAL":7,"POSITION":6,"TANGENT":8,"TEXCOORD_0":9},"indices":5,"material":1}]}],"nodes":[{"extras":{"THREE_export":1,"ant_landscape":{},"s_curve":{}},"mesh":1,"name":"Dice_Cube"}],"scene":0,"scenes":[{"name":"Scene","nodes":[0]}]}
